<?xml version="1.0" encoding="utf-8"?>
<!-- Generator: Adobe Illustrator 25.2.0, SVG Export Plug-In . SVG Version: 6.00 Build 0)  -->
<svg version="1.1" id="图层_1" xmlns="http://www.w3.org/2000/svg" xmlns:xlink="http://www.w3.org/1999/xlink" x="0px" y="0px"
	 viewBox="0 0 576 512" style="enable-background:new 0 0 576 512;" xml:space="preserve">
<g>
	<path d="M110.4,284.6H95.7H51.6v58.8h58.8c16.2,0,29.4-13.2,29.4-29.4S126.6,284.6,110.4,284.6z"/>
	<path d="M125.1,225.7c0-16.2-13.2-29.4-29.4-29.4H51.6v58.8h44.1C111.9,255.1,125.1,242,125.1,225.7z"/>
	<path d="M511.3,45.8h-448c-35.3,0-64,28.7-64,64v320c0,35.3,28.7,64,64,64h448c35.3,0,64-28.7,64-64v-320
		C575.3,74.5,546.6,45.8,511.3,45.8z M110.4,372.8H51.6c-16.2,0-29.4-13.2-29.4-29.4v-73.5v-73.5c0-16.2,13.2-29.4,29.4-29.4h44.1
		c32.5,0,58.8,26.3,58.8,58.8c0,14.4-5.2,27.6-13.8,37.8c17.1,10.3,28.5,29,28.5,50.4C169.2,346.5,142.9,372.8,110.4,372.8z
		 M382.1,354.1c0,7.6-6.1,13.7-13.7,13.7s-13.7-6.1-13.7-13.7v-119l-57,85.6c-2.5,3.8-6.8,6.1-11.4,6.1s-8.9-2.3-11.4-6.1l-57-85.6
		v119c0,7.6-6.1,13.7-13.7,13.7c-7.6,0-13.7-6.1-13.7-13.7V189.9c0-6,3.9-11.3,9.7-13.1c5.8-1.8,12,0.5,15.4,5.5l70.7,106
		l70.7-106.1c3.3-5,9.6-7.3,15.4-5.5s9.7,7.1,9.7,13.1V354.1z M488.5,314.1h-45.3v45.3c0,8.4-6.8,15.1-15.1,15.1
		c-8.4,0-15.1-6.8-15.1-15.1V299V193.3c0-16.7,13.6-30.2,30.2-30.2h45.3c41.7,0,75.6,33.8,75.6,75.6
		C564,280.3,530.2,314.1,488.5,314.1z"/>
	<path d="M488.5,193.3h-45.3v90.7h45.3c25,0,45.3-20.3,45.3-45.3C533.8,213.6,513.5,193.3,488.5,193.3z"/>
</g>
</svg>
