<?xml version="1.0" encoding="utf-8"?>
<!-- Generator: Adobe Illustrator 25.2.0, SVG Export Plug-In . SVG Version: 6.00 Build 0)  -->
<svg version="1.1" id="图层_1" xmlns="http://www.w3.org/2000/svg" xmlns:xlink="http://www.w3.org/1999/xlink" x="0px" y="0px"
	 viewBox="0 0 576 512" style="enable-background:new 0 0 576 512;" xml:space="preserve">
<path d="M0,92.2c0-35.3,28.7-64,64-64h448c35.3,0,64,28.7,64,64v320c0,35.3-28.7,64-64,64H64c-35.3,0-64-28.7-64-64V92.2z
	 M401.1,157.1v97v97c0,10.7,8.8,19.4,19.4,19.4s19.4-8.7,19.4-19.4v-77.6h77.8c10.7,0,19.4-8.7,19.4-19.4s-8.8-19.4-19.4-19.4H440
	v-58.2h97.2c10.7,0,19.4-8.7,19.4-19.4c0-10.7-8.8-19.4-19.4-19.4H420.6C409.9,137.7,401.1,146.4,401.1,157.1z M60.4,249.7
	c0-44.4,36.1-80.6,80.6-80.6c18.1,0,34.9,6,48.3,16.1c8.9,6.7,21.5,4.9,28.2-4c6.7-8.9,4.9-21.5-4-28.2
	c-20.1-15.2-45.3-24.2-72.5-24.2c-66.7,0-120.8,54.1-120.8,120.8s54.1,120.8,120.8,120.8c27.2,0,52.4-8.9,72.5-24.2
	c5-3.8,8.1-9.8,8.1-16.1v-70.5c0-11.1-9.1-20.1-20.1-20.1h-70.5c-11.1,0-20.1,9.1-20.1,20.1c0,11.1,9.1,20.1,20.1,20.1h50.3v39.5
	c-11.8,6.8-25.6,10.8-40.3,10.8C96.5,330.2,60.4,294.1,60.4,249.7z M269.5,136.1c-5.9,0-10.7,7.5-10.7,16.9s4.8,16.9,10.7,16.9h24.4
	v168.6h-24.4c-5.9,0-10.7,7.5-10.7,16.9s4.8,16.9,12.8,16.9h85.2c3.7,0,8.5-7.5,8.5-16.9s-4.8-16.9-10.7-16.9h-22.3V169.8h22.3
	c5.9,0,10.7-7.5,10.7-16.9s-4.8-16.9-10.7-16.9h-42.6H269.5z"/>
</svg>
