<?xml version="1.0" encoding="utf-8"?>
<!-- Generator: Adobe Illustrator 25.2.0, SVG Export Plug-In . SVG Version: 6.00 Build 0)  -->
<svg version="1.1" id="图层_1" xmlns="http://www.w3.org/2000/svg" xmlns:xlink="http://www.w3.org/1999/xlink" x="0px" y="0px"
	 viewBox="0 0 576 512" style="enable-background:new 0 0 576 512;" xml:space="preserve">
<g>
	<ellipse transform="matrix(0.7071 -0.7071 0.7071 0.7071 -40.6405 397.7859)" cx="459.8" cy="248" rx="75.5" ry="75.5"/>
	<path d="M512,32H64C28.7,32,0,60.7,0,96v320c0,35.3,28.7,64,64,64h448c35.3,0,64-28.7,64-64V96C576,60.7,547.3,32,512,32z
		 M135.4,324.9c5.9,0,10.7,6.8,10.7,15.2c0,8.5-4.8,15.2-8.5,15.2H52.4c-8,0-12.8-6.8-12.8-15.2c0-8.5,4.8-15.2,10.7-15.2h24.4
		V172.8H50.3c-5.9,0-10.7-6.8-10.7-15.2c0-8.5,4.8-15.2,10.7-15.2v-0.1h42.5h42.6c5.9,0,10.7,6.8,10.7,15.2
		c0,8.5-4.8,15.2-10.7,15.2h-22.3v152.2H135.4z M216.3,195c-31.2,29.7-31.2,77.9,0,107.7s77.9,29.7,109.2,0c6.2-5.9,16.4-5.9,22.6,0
		s6.2,15.6,0,21.6c-43.8,41.6-110.6,41.6-154.4,0s-43.8-109.1,0-150.7c43.8-41.6,110.6-41.6,154.4,0c6.2,5.9,6.2,15.6,0,21.6
		c-6.2,5.9-16.4,5.9-22.6,0v0C294.2,165.2,247.5,165.2,216.3,195z M459.8,353.6c-58.4,0-105.7-47.3-105.7-105.7
		c0-58.4,47.3-105.7,105.7-105.7c58.4,0,105.7,47.3,105.7,105.7C565.5,306.3,518.2,353.6,459.8,353.6z"/>
</g>
</svg>
