<?xml version="1.0" encoding="utf-8"?>
<!-- Generator: Adobe Illustrator 25.2.0, SVG Export Plug-In . SVG Version: 6.00 Build 0)  -->
<svg version="1.1" id="图层_1" xmlns="http://www.w3.org/2000/svg" xmlns:xlink="http://www.w3.org/1999/xlink" x="0px" y="0px"
	 viewBox="0 0 576 512" style="enable-background:new 0 0 576 512;" xml:space="preserve">
<g id="图层_2_1_">
</g>
<g>
	<path d="M280.8,179.9h-33.9c-2.1,0-4,1.4-4.2,3.2v77.1c0,4,3.9,7.3,8.7,7.3l31.6-0.9c29.5,0,44.7-16.3,44.7-41.4
		C327.7,200.1,310.3,179.9,280.8,179.9z"/>
	<path d="M512.1,62.7H64.1c-35.3,0-64,27.4-64,61.1v305.4c0,33.8,28.7,61.2,64.1,61.2h447.9c35.4,0,64.1-27.4,64.1-61.2V123.9
		C576.1,90.1,547.5,62.7,512.1,62.7z M176,293c0,41.2-34.4,74.5-76.9,74.5c-42.5,0-76.9-33.4-76.9-74.5v-14.9
		c0-8.2,6.9-14.9,15.4-14.9S53,269.9,53,278.1V293c0,24.7,20.7,44.7,46.2,44.7s46.2-20,46.2-44.7V173.8c-0.2-8.2,6.7-14.9,15.2-14.9
		s15.4,6.7,15.4,14.9V293z M278.6,295.2H250c-5.6,0-10.1,4-10.1,9.1h-0.1v31.5c0,6.2,0.9,26.3-14.3,26.3c-6.6,0-12-4.9-12-11.1v-67
		V179.5c0-14.4,12.5-26.1,28-26.1h37.1c42.1,0,76.2,31.7,76.2,70.9C354.8,263.5,320.7,295.2,278.6,295.2z M541.1,332.6
		c0,5.4-2.5,10.6-6.6,13.9c-16.5,13.2-37.1,20.9-59.4,20.9c-54.6,0-98.9-46.7-98.9-104.3c0-57.6,44.3-104.3,98.9-104.3
		c22.3,0,42.9,7.7,59.4,20.9c7.3,5.7,8.8,16.6,3.3,24.3s-15.8,9.3-23.1,3.5c-11.1-8.7-24.8-13.9-39.6-13.9c-36.4,0-66,31.2-66,69.6
		c0,38.4,29.6,69.6,65.9,69.3c12.1,0,23.3-3.4,33-9.3v-34.1h-41.1c-9.1,0-16.5-7.8-16.5-17.4c0-9.6,7.4-17.4,16.5-17.4h57.7
		c9.1,0,16.5,7.8,16.5,17.4V332.6z"/>
</g>
</svg>
