<?xml version="1.0" encoding="utf-8"?>
<!-- Generator: Adobe Illustrator 25.2.0, SVG Export Plug-In . SVG Version: 6.00 Build 0)  -->
<svg version="1.1" id="图层_1" xmlns="http://www.w3.org/2000/svg" xmlns:xlink="http://www.w3.org/1999/xlink" x="0px" y="0px"
	 viewBox="0 0 576 512" style="enable-background:new 0 0 576 512;" xml:space="preserve">
<path d="M0,72.7c0-35.3,28.7-64,64-64h447.9c35.4,0,64.1,28.7,64.1,64.1v319.9c0,35.4-28.7,64.1-64.1,64.1H64.1
	C28.7,456.7,0,428,0,392.6V72.7L0,72.7z M411.5,225.2c0-38.6,31.4-70,70-70c15.7,0,30.3,5.2,42,14c7.8,5.8,18.7,4.3,24.5-3.5
	s4.3-18.7-3.5-24.5c-21.8-16.5-50.3-24.5-80.6-19.6c-44,7.1-78.8,42-85.9,86c-10.6,65.7,39.9,122.5,103.6,122.5
	c23.6,0,45.5-7.8,63-21c4.4-3.3,7-8.5,7-14V234c0-9.7-7.9-17.6-17.6-17.6h-60.7c-9.1,0-17,6.8-17.9,15.8c-1,10.4,7.2,19.2,17.4,19.2
	h43.7c0,0,0.1,0,0.1,0.1v34.2v0.1c-10.3,5.9-22.2,9.4-35,9.4C448.7,295.2,411.5,263.8,411.5,225.2z M77.7,142.7h44.8
	c1.6,0,3.2,0.3,4.7,0.9c4.9,1.9,13.5,6.3,20.2,15.9c8,11.5,8.4,23.5,8.5,28.6c0.3,15.8-6.1,27-8.6,31.3c-4.6,7.8-10,13.1-14.3,16.4
	c-2.3,1.8-5.1,2.8-7.9,2.8c-14.7,0.3-29.5,0.6-44.2,0.9c-4.4,0-7.9-3.6-7.9-8.1v-83.8C73.1,145,75.2,142.7,77.7,142.7z M71.2,272.1
	c0-5.1,4-9.2,8.9-9.2l35-0.4c37,0,67-32.1,67-71.6s-30-71.6-67-71.6H65.7c-13.7,0-24.6,11.8-24.6,26.4v105.5V319
	c0,6.3,4.7,11.3,10.6,11.3c17,0,19.5-20,19.5-26.2V272.1z M242.1,128.1L242.1,128.1c-6.5-7.3-14.8-10.6-22.5-7.8
	c-7.6,2.8-12.7,10.6-12.7,19.5v177.1c0,11.4,8.2,20.4,18.3,20.4c10.1,0,18.3-9.1,18.3-20.4v-100c0-3.4,4.3-4.8,7.2-1.9l70.2,113.4
	c3.6,7.3,11.8,10.6,19.4,7.8s12.7-10.6,12.7-19.5v-177c0-11.4-8.2-20.4-18.3-20.4c-10.1,0-20.3,9.1-20.3,20.4l1.8,99.6
	c0.1,3.5-4.3,4.8-6.1,1.9L242.1,128.1z"/>
<g id="图层_2_1_">
</g>
</svg>
