<?xml version="1.0" encoding="utf-8"?>
<!-- Generator: Adobe Illustrator 25.2.0, SVG Export Plug-In . SVG Version: 6.00 Build 0)  -->
<svg version="1.1" id="图层_1" xmlns="http://www.w3.org/2000/svg" xmlns:xlink="http://www.w3.org/1999/xlink" x="0px" y="0px"
	 viewBox="0 0 576 512" style="enable-background:new 0 0 576 512;" xml:space="preserve">
<path d="M512,27H64C28.7,27,0,55.7,0,91v320c0,35.3,28.7,64,64,64h448c35.3,0,64-28.7,64-64V91C576,55.7,547.3,27,512,27z
	 M180.1,299.2c-3.6,20.7-17.2,34.9-34.9,42.5c-17.2,7.4-38.5,8.7-60.2,5.3H85c-11.7-1.9-30.5-8.3-42.6-12.4
	c-2.3-0.8-4.5-1.5-6.2-2.1c-8.1-2.8-12.4-11.6-9.8-19.7c2.7-8.2,11.5-12.5,19.7-9.9c2.4,0.8,5,1.7,7.7,2.6
	c12.4,4.2,27.4,9.3,36.2,10.7c17.9,2.8,32.8,1.2,43-3.2c9.8-4.2,15-10.6,16.5-19.2c1.2-6.9,0.3-11.3-1-14.3c-1.4-3.1-3.8-6-8.1-9
	c-9.3-6.5-23.5-10.7-41.3-15.8c-0.5-0.1-0.9-0.3-1.4-0.4c-15.9-4.5-35-10-49.1-19.8c-7.6-5.3-14.5-12.4-18.8-21.9
	c-4.3-9.6-5.2-20.4-3.2-32.2l0,0c3.6-20.7,17.2-34.9,34.9-42.5c17.2-7.4,38.5-8.7,60.2-5.3c6.3,1,25.5,4.7,32.4,6.5
	c8.3,2.2,13.2,10.7,11,19.1c-2.2,8.3-10.7,13.2-19.1,11c-5.4-1.5-23.4-5-29.2-5.8c-17.9-2.8-32.8-1.2-43.1,3.2l0,0
	c-9.8,4.2-15,10.6-16.5,19.2c-1.2,6.9-0.3,11.3,1,14.3c1.4,3.1,3.8,6,8.1,9c9.3,6.5,23.5,10.7,41.3,15.8c0.5,0.1,0.9,0.3,1.4,0.4
	c15.9,4.5,35,10,49.1,19.8c7.6,5.3,14.5,12.4,18.8,21.9C181.2,276.6,182.2,287.4,180.1,299.2z M279.3,349.7c-6.3,0-12-3.8-14.3-9.6
	l-77.8-186.7c-3.3-7.9,0.4-17,8.4-20.3s17,0.4,20.3,8.4l63.5,152.3l63.5-152.3c3.3-7.9,12.4-11.7,20.3-8.4s11.7,12.4,8.4,20.3
	l-77.8,186.7C291.2,345.9,285.5,349.7,279.3,349.7z M565.3,249.9c-4.2,55.9-47.4,99.9-100,99.9C409.9,349.7,365,301,365,240.8
	s44.9-108.9,100.4-108.9c25.7,0,49.1,10.5,66.9,27.7c5.9,5.7,6.4,15.6,1.1,22c-5.3,6.4-14.3,7-20.3,1.2
	c-12.7-12.3-29.4-19.8-47.8-19.8c-39.6,0-71.7,34.8-71.7,77.8s32.1,77.8,71.7,77.8c34.7,0,63.6-26.7,70.3-62.2h-55.9
	c-7.9,0-14.3-7-14.3-15.6c0-8.6,6.4-15.6,14.3-15.6h64.5C555.8,225.2,566.4,235.7,565.3,249.9z"/>
</svg>
