<?xml version="1.0" encoding="utf-8"?>
<!-- Generator: Adobe Illustrator 25.2.0, SVG Export Plug-In . SVG Version: 6.00 Build 0)  -->
<svg version="1.1" id="图层_1" xmlns="http://www.w3.org/2000/svg" xmlns:xlink="http://www.w3.org/1999/xlink" x="0px" y="0px"
	 viewBox="0 0 576 512" style="enable-background:new 0 0 576 512;" xml:space="preserve">
<path d="M512,48.4H64c-35.3,0-64,28.7-64,64v320c0,35.3,28.7,64,64,64h448c35.3,0,64-28.7,64-64v-320C576,77.1,547.3,48.4,512,48.4z
	 M190.3,188.3h-47.8v200.1c0,10.3-12.4,18.5-19.9,18.5c-7.5,0-17.8-8.3-17.8-18.5V188.3h-50c-7.5,0-13.5-12.2-13.5-22.5
	s6.1-18.5,13.5-18.5h67.7h67.7c7.5,0,13.5,8.3,13.5,18.5S197.8,188.3,190.3,188.3z M337.9,372.4c6.9,0,12.5,8.4,12.5,18.9
	s-5.6,18.9-10.2,18.9h-99.8c-9.2,0-14.8-8.4-14.8-18.9s5.6-18.9,12.5-18.9h30.6V188.2h-30.6c-6.9,0-12.5-13.1-12.5-23.5
	s5.6-18.9,12.5-18.9H288h49.9c6.9,0,12.5,8.4,12.5,18.9s-5.6,23.5-12.5,23.5h-29.3v184.2H337.9z M518.8,187.7H407.9v74.9h79.2
	c8.8,0,15.8,8.4,15.8,18.7c0,10.4-7.1,18.7-15.8,18.7h-79.2v93.7c0,10.4-7.1,18.7-15.8,18.7c-8.8,0-15.8-8.4-15.8-18.7V281.3v-93.7
	c0-20.7,14.2-37.5,31.7-37.5h110.9c8.8,0,15.8,8.4,15.8,18.7S527.6,187.7,518.8,187.7z"/>
</svg>
